TITLE ""
FILE "Step3_Track22.mp3" MP3
  TRACK 01 AUDIO
    TITLE "Step3_Track22_01"
    INDEX 01 00:00:00
  TRACK 02 AUDIO
    TITLE "Step3_Track22_02"
    INDEX 01 00:00:22
  TRACK 03 AUDIO
    TITLE "Step3_Track22_03"
    INDEX 01 00:01:69
  TRACK 04 AUDIO
    TITLE "Step3_Track22_04"
    INDEX 01 00:02:48
  TRACK 05 AUDIO
    TITLE "Step3_Track22_05"
    INDEX 01 00:03:46
  TRACK 06 AUDIO
    TITLE "Step3_Track22_06"
    INDEX 01 00:03:67
  TRACK 07 AUDIO
    TITLE "Step3_Track22_07"
    INDEX 01 00:06:38
  TRACK 08 AUDIO
    TITLE "Step3_Track22_08"
    INDEX 01 00:07:01
  TRACK 09 AUDIO
    TITLE "Step3_Track22_09"
    INDEX 01 00:07:67
  TRACK 10 AUDIO
    TITLE "Step3_Track22_10"
    INDEX 01 00:07:69
  TRACK 11 AUDIO
    TITLE "Step3_Track22_11"
    INDEX 01 00:10:24
  TRACK 12 AUDIO
    TITLE "Step3_Track22_12"
    INDEX 01 00:10:42
  TRACK 13 AUDIO
    TITLE "Step3_Track22_13"
    INDEX 01 00:11:38
  TRACK 14 AUDIO
    TITLE "Step3_Track22_14"
    INDEX 01 00:11:41
  TRACK 15 AUDIO
    TITLE "Step3_Track22_15"
    INDEX 01 00:14:10
  TRACK 16 AUDIO
    TITLE "Step3_Track22_16"
    INDEX 01 00:14:48
  TRACK 17 AUDIO
    TITLE "Step3_Track22_17"
    INDEX 01 00:15:45
  TRACK 18 AUDIO
    TITLE "Step3_Track22_18"
    INDEX 01 00:15:49
  TRACK 19 AUDIO
    TITLE "Step3_Track22_19"
    INDEX 01 00:18:16
  TRACK 20 AUDIO
    TITLE "Step3_Track22_20"
    INDEX 01 00:18:32
  TRACK 21 AUDIO
    TITLE "Step3_Track22_21"
    INDEX 01 00:19:25
  TRACK 22 AUDIO
    TITLE "Step3_Track22_22"
    INDEX 01 00:19:29
  TRACK 23 AUDIO
    TITLE "Step3_Track22_23"
    INDEX 01 00:22:51
  TRACK 24 AUDIO
    TITLE "Step3_Track22_24"
    INDEX 01 00:22:67
  TRACK 25 AUDIO
    TITLE "Step3_Track22_25"
    INDEX 01 00:23:68
  TRACK 26 AUDIO
    TITLE "Step3_Track22_26"
    INDEX 01 00:24:01
  TRACK 27 AUDIO
    TITLE "Step3_Track22_27"
    INDEX 01 00:25:67
  TRACK 28 AUDIO
    TITLE "Step3_Track22_28"
    INDEX 01 00:26:18
  TRACK 29 AUDIO
    TITLE "Step3_Track22_29"
    INDEX 01 00:27:19
  TRACK 30 AUDIO
    TITLE "Step3_Track22_30"
    INDEX 01 00:27:29
  TRACK 31 AUDIO
    TITLE "Step3_Track22_31"
    INDEX 01 00:29:35
  TRACK 32 AUDIO
    TITLE "Step3_Track22_32"
    INDEX 01 00:29:69
  TRACK 33 AUDIO
    TITLE "Step3_Track22_33"
    INDEX 01 00:30:58
  TRACK 34 AUDIO
    TITLE "Step3_Track22_34"
    INDEX 01 00:30:70
  TRACK 35 AUDIO
    TITLE "Step3_Track22_35"
    INDEX 01 00:32:73
  TRACK 36 AUDIO
    TITLE "Step3_Track22_36"
    INDEX 01 00:33:22
  TRACK 37 AUDIO
    TITLE "Step3_Track22_37"
    INDEX 01 00:34:21
  TRACK 38 AUDIO
    TITLE "Step3_Track22_38"
    INDEX 01 00:34:27
  TRACK 39 AUDIO
    TITLE "Step3_Track22_39"
    INDEX 01 00:37:39
  TRACK 40 AUDIO
    TITLE "Step3_Track22_40"
    INDEX 01 00:37:70
  TRACK 41 AUDIO
    TITLE "Step3_Track22_41"
    INDEX 01 00:38:62
  TRACK 42 AUDIO
    TITLE "Step3_Track22_42"
    INDEX 01 00:38:66
  TRACK 43 AUDIO
    TITLE "Step3_Track22_43"
    INDEX 01 00:41:60
